solid shaftRotating
 facet normal  0.000000e+00  0.000000e+00  1.000000e+00
   outer loop
     vertex  1.593560e-03  1.926283e-03  5.000000e-03
     vertex -2.421458e-03  6.217247e-04  5.000000e-03
     vertex -2.500000e-03  0.000000e+00  5.000000e-03
   endloop
 endfacet
 facet normal  0.000000e+00  0.000000e+00  1.000000e+00
   outer loop
     vertex  1.593560e-03  1.926283e-03  5.000000e-03
     vertex -2.190767e-03  1.204384e-03  5.000000e-03
     vertex -2.421458e-03  6.217247e-04  5.000000e-03
   endloop
 endfacet
 facet normal  0.000000e+00  0.000000e+00  1.000000e+00
   outer loop
     vertex  1.593560e-03  1.926283e-03  5.000000e-03
     vertex -1.822422e-03  1.711368e-03  5.000000e-03
     vertex -2.190767e-03  1.204384e-03  5.000000e-03
   endloop
 endfacet
 facet normal  0.000000e+00  0.000000e+00  1.000000e+00
   outer loop
     vertex  1.593560e-03  1.926283e-03  5.000000e-03
     vertex -1.339567e-03  2.110820e-03  5.000000e-03
     vertex -1.822422e-03  1.711368e-03  5.000000e-03
   endloop
 endfacet
 facet normal  0.000000e+00  0.000000e+00  1.000000e+00
   outer loop
     vertex  1.593560e-03  1.926283e-03  5.000000e-03
     vertex -7.725425e-04  2.377641e-03  5.000000e-03
     vertex -1.339567e-03  2.110820e-03  5.000000e-03
   endloop
 endfacet
 facet normal  0.000000e+00  0.000000e+00  1.000000e+00
   outer loop
     vertex  1.593560e-03  1.926283e-03  5.000000e-03
     vertex -1.569763e-04  2.495067e-03  5.000000e-03
     vertex -7.725425e-04  2.377641e-03  5.000000e-03
   endloop
 endfacet
 facet normal  0.000000e+00  0.000000e+00  1.000000e+00
   outer loop
     vertex  1.593560e-03  1.926283e-03  5.000000e-03
     vertex  4.684533e-04  2.455718e-03  5.000000e-03
     vertex -1.569763e-04  2.495067e-03  5.000000e-03
   endloop
 endfacet
 facet normal  0.000000e+00  0.000000e+00  1.000000e+00
   outer loop
     vertex  1.593560e-03  1.926283e-03  5.000000e-03
     vertex  1.064448e-03  2.262068e-03  5.000000e-03
     vertex  4.684533e-04  2.455718e-03  5.000000e-03
   endloop
 endfacet
 facet normal -0.000000e+00 -0.000000e+00  1.000000e+00
   outer loop
     vertex  1.593560e-03  1.926283e-03  5.000000e-03
     vertex  2.324441e-03  9.203114e-04  5.000000e-03
     vertex  2.022542e-03  1.469463e-03  5.000000e-03
   endloop
 endfacet
 facet normal -0.000000e+00 -0.000000e+00  1.000000e+00
   outer loop
     vertex  1.593560e-03  1.926283e-03  5.000000e-03
     vertex  2.480287e-03  3.133331e-04  5.000000e-03
     vertex  2.324441e-03  9.203114e-04  5.000000e-03
   endloop
 endfacet
 facet normal -0.000000e+00 -0.000000e+00  1.000000e+00
   outer loop
     vertex  1.593560e-03  1.926283e-03  5.000000e-03
     vertex  2.480287e-03 -3.133331e-04  5.000000e-03
     vertex  2.480287e-03  3.133331e-04  5.000000e-03
   endloop
 endfacet
 facet normal -0.000000e+00  0.000000e+00  1.000000e+00
   outer loop
     vertex  1.593560e-03  1.926283e-03  5.000000e-03
     vertex  2.324441e-03 -9.203114e-04  5.000000e-03
     vertex  2.480287e-03 -3.133331e-04  5.000000e-03
   endloop
 endfacet
 facet normal -0.000000e+00  0.000000e+00  1.000000e+00
   outer loop
     vertex  1.593560e-03  1.926283e-03  5.000000e-03
     vertex  2.022542e-03 -1.469463e-03  5.000000e-03
     vertex  2.324441e-03 -9.203114e-04  5.000000e-03
   endloop
 endfacet
 facet normal -0.000000e+00  0.000000e+00  1.000000e+00
   outer loop
     vertex  1.593560e-03  1.926283e-03  5.000000e-03
     vertex  1.593560e-03 -1.926283e-03  5.000000e-03
     vertex  2.022542e-03 -1.469463e-03  5.000000e-03
   endloop
 endfacet
 facet normal -0.000000e+00  0.000000e+00  1.000000e+00
   outer loop
     vertex  1.593560e-03  1.926283e-03  5.000000e-03
     vertex  1.064448e-03 -2.262068e-03  5.000000e-03
     vertex  1.593560e-03 -1.926283e-03  5.000000e-03
   endloop
 endfacet
 facet normal -0.000000e+00  0.000000e+00  1.000000e+00
   outer loop
     vertex  1.593560e-03  1.926283e-03  5.000000e-03
     vertex  4.684533e-04 -2.455718e-03  5.000000e-03
     vertex  1.064448e-03 -2.262068e-03  5.000000e-03
   endloop
 endfacet
 facet normal -0.000000e+00  0.000000e+00  1.000000e+00
   outer loop
     vertex  1.593560e-03  1.926283e-03  5.000000e-03
     vertex -1.569763e-04 -2.495067e-03  5.000000e-03
     vertex  4.684533e-04 -2.455718e-03  5.000000e-03
   endloop
 endfacet
 facet normal  0.000000e+00  0.000000e+00  1.000000e+00
   outer loop
     vertex  1.593560e-03  1.926283e-03  5.000000e-03
     vertex -7.725425e-04 -2.377641e-03  5.000000e-03
     vertex -1.569763e-04 -2.495067e-03  5.000000e-03
   endloop
 endfacet
 facet normal  0.000000e+00  0.000000e+00  1.000000e+00
   outer loop
     vertex  1.593560e-03  1.926283e-03  5.000000e-03
     vertex -1.339567e-03 -2.110820e-03  5.000000e-03
     vertex -7.725425e-04 -2.377641e-03  5.000000e-03
   endloop
 endfacet
 facet normal  0.000000e+00  0.000000e+00  1.000000e+00
   outer loop
     vertex  1.593560e-03  1.926283e-03  5.000000e-03
     vertex -1.822422e-03 -1.711368e-03  5.000000e-03
     vertex -1.339567e-03 -2.110820e-03  5.000000e-03
   endloop
 endfacet
 facet normal  0.000000e+00  0.000000e+00  1.000000e+00
   outer loop
     vertex  1.593560e-03  1.926283e-03  5.000000e-03
     vertex -2.190767e-03 -1.204384e-03  5.000000e-03
     vertex -1.822422e-03 -1.711368e-03  5.000000e-03
   endloop
 endfacet
 facet normal  0.000000e+00  0.000000e+00  1.000000e+00
   outer loop
     vertex  1.593560e-03  1.926283e-03  5.000000e-03
     vertex -2.421458e-03 -6.217247e-04  5.000000e-03
     vertex -2.190767e-03 -1.204384e-03  5.000000e-03
   endloop
 endfacet
 facet normal  0.000000e+00  0.000000e+00  1.000000e+00
   outer loop
     vertex  1.593560e-03  1.926283e-03  5.000000e-03
     vertex -2.500000e-03  0.000000e+00  5.000000e-03
     vertex -2.421458e-03 -6.217247e-04  5.000000e-03
   endloop
 endfacet
 facet normal  9.921147e-01 -1.253332e-01  0.000000e+00
   outer loop
     vertex -2.421458e-03  6.217247e-04  1.000000e-01
     vertex -2.500000e-03  0.000000e+00  1.000000e-01
     vertex -2.421458e-03  6.217247e-04  5.000000e-03
   endloop
 endfacet
 facet normal  9.921147e-01 -1.253332e-01  0.000000e+00
   outer loop
     vertex -2.500000e-03  0.000000e+00  1.000000e-01
     vertex -2.500000e-03  0.000000e+00  5.000000e-03
     vertex -2.421458e-03  6.217247e-04  5.000000e-03
   endloop
 endfacet
 facet normal  9.297765e-01 -3.681245e-01 -1.992221e-04
   outer loop
     vertex -2.190767e-03  1.204384e-03  1.000000e-01
     vertex -2.421458e-03  6.217247e-04  1.000000e-01
     vertex -2.291288e-03  1.000000e-03  8.527429e-03
   endloop
 endfacet
 facet normal  9.455806e-01 -3.253881e-01  0.000000e+00
   outer loop
     vertex -2.421458e-03  6.217247e-04  1.000000e-01
     vertex -2.421458e-03  6.217247e-04  5.000000e-03
     vertex -2.291288e-03  1.000000e-03  8.527429e-03
   endloop
 endfacet
 facet normal  9.455806e-01 -3.253881e-01  0.000000e+00
   outer loop
     vertex -2.291288e-03  1.000000e-03  8.527429e-03
     vertex -2.421458e-03  6.217247e-04  5.000000e-03
     vertex -2.291288e-03  1.000000e-03  7.512002e-03
   endloop
 endfacet
 facet normal  9.297520e-01 -3.681149e-01  7.254326e-03
   outer loop
     vertex -2.291288e-03  1.000000e-03  7.512002e-03
     vertex -2.421458e-03  6.217247e-04  5.000000e-03
     vertex -2.190767e-03  1.204384e-03  5.000000e-03
   endloop
 endfacet
 facet normal  8.090170e-01 -5.877852e-01 -2.061323e-04
   outer loop
     vertex -1.822422e-03  1.711368e-03  1.000000e-01
     vertex -2.190767e-03  1.204384e-03  1.000000e-01
     vertex -2.060157e-03  1.416246e-03  8.486674e-03
   endloop
 endfacet
 facet normal  8.089934e-01 -5.877681e-01  7.633111e-03
   outer loop
     vertex -2.060157e-03  1.416246e-03  7.471248e-03
     vertex -2.190767e-03  1.204384e-03  5.000000e-03
     vertex -1.822422e-03  1.711368e-03  5.000000e-03
   endloop
 endfacet
 facet normal  6.374240e-01 -7.705132e-01 -1.128266e-04
   outer loop
     vertex -1.339567e-03  2.110820e-03  1.000000e-01
     vertex -1.822422e-03  1.711368e-03  1.000000e-01
     vertex -1.754307e-03  1.781126e-03  8.432744e-03
   endloop
 endfacet
 facet normal  7.663810e-01 -6.423863e-01  8.071182e-05
   outer loop
     vertex -1.822422e-03  1.711368e-03  1.000000e-01
     vertex -2.060157e-03  1.416246e-03  8.486674e-03
     vertex -1.754307e-03  1.781126e-03  8.432744e-03
   endloop
 endfacet
 facet normal  6.295318e-01 -7.769747e-01 -5.381544e-05
   outer loop
     vertex -1.339567e-03  2.110820e-03  1.000000e-01
     vertex -1.754307e-03  1.781126e-03  8.432744e-03
     vertex -1.378629e-03  2.085517e-03  8.366502e-03
   endloop
 endfacet
 facet normal  6.374182e-01 -7.705062e-01  4.273797e-03
   outer loop
     vertex -1.754307e-03  1.781126e-03  7.417318e-03
     vertex -1.822422e-03  1.711368e-03  5.000000e-03
     vertex -1.339567e-03  2.110820e-03  5.000000e-03
   endloop
 endfacet
 facet normal  6.297600e-01 -7.767869e-01  2.103276e-03
   outer loop
     vertex -1.378629e-03  2.085517e-03  7.351076e-03
     vertex -1.754307e-03  1.781126e-03  7.417318e-03
     vertex -1.339567e-03  2.110820e-03  5.000000e-03
   endloop
 endfacet
 facet normal  4.257793e-01 -9.048270e-01 -1.816603e-04
   outer loop
     vertex -7.725425e-04  2.377641e-03  1.000000e-01
     vertex -1.339567e-03  2.110820e-03  1.000000e-01
     vertex -9.513822e-04  2.311898e-03  8.291167e-03
   endloop
 endfacet
 facet normal  4.682027e-01 -8.836211e-01  4.440469e-05
   outer loop
     vertex -1.339567e-03  2.110820e-03  1.000000e-01
     vertex -1.378629e-03  2.085517e-03  8.366502e-03
     vertex -9.513822e-04  2.311898e-03  8.291167e-03
   endloop
 endfacet
 facet normal  4.257679e-01 -9.048028e-01  7.320432e-03
   outer loop
     vertex -9.513822e-04  2.311898e-03  7.275741e-03
     vertex -1.339567e-03  2.110820e-03  5.000000e-03
     vertex -7.725425e-04  2.377641e-03  5.000000e-03
   endloop
 endfacet
 facet normal  1.873813e-01 -9.822872e-01 -2.138503e-04
   outer loop
     vertex -1.569763e-04  2.495067e-03  1.000000e-01
     vertex -7.725425e-04  2.377641e-03  1.000000e-01
     vertex -4.885481e-04  2.451800e-03  8.209557e-03
   endloop
 endfacet
 facet normal  1.873738e-01 -9.822479e-01  8.945972e-03
   outer loop
     vertex -4.885481e-04  2.451800e-03  7.194130e-03
     vertex -7.725425e-04  2.377641e-03  5.000000e-03
     vertex -1.569763e-04  2.495067e-03  5.000000e-03
   endloop
 endfacet
 facet normal -6.279052e-02 -9.980267e-01 -1.556665e-04
   outer loop
     vertex  4.684533e-04  2.455718e-03  1.000000e-01
     vertex -1.569763e-04  2.495067e-03  1.000000e-01
     vertex -7.439244e-06  2.499989e-03  8.124725e-03
   endloop
 endfacet
 facet normal  9.968358e-02 -9.950192e-01  1.089389e-04
   outer loop
     vertex -1.569763e-04  2.495067e-03  1.000000e-01
     vertex -4.885481e-04  2.451800e-03  8.209557e-03
     vertex -7.439244e-06  2.499989e-03  8.124725e-03
   endloop
 endfacet
 facet normal -9.374004e-02 -9.955967e-01  5.815706e-06
   outer loop
     vertex  4.684533e-04  2.455718e-03  1.000000e-01
     vertex -7.439244e-06  2.499989e-03  8.124725e-03
     vertex  4.739478e-04  2.454664e-03  8.039843e-03
   endloop
 endfacet
 facet normal -6.278908e-02 -9.980038e-01  6.780255e-03
   outer loop
     vertex -7.439244e-06  2.499989e-03  7.109298e-03
     vertex -1.569763e-04  2.495067e-03  5.000000e-03
     vertex  4.684533e-04  2.455718e-03  5.000000e-03
   endloop
 endfacet
 facet normal -3.090170e-01 -9.510565e-01 -1.471187e-04
   outer loop
     vertex  1.064448e-03  2.262068e-03  1.000000e-01
     vertex  4.684533e-04  2.455718e-03  1.000000e-01
     vertex  9.376064e-04  2.317519e-03  7.958088e-03
   endloop
 endfacet
 facet normal -2.836412e-01 -9.589305e-01 -5.951223e-06
   outer loop
     vertex  4.684533e-04  2.455718e-03  1.000000e-01
     vertex  4.739478e-04  2.454664e-03  8.039843e-03
     vertex  9.376064e-04  2.317519e-03  7.958088e-03
   endloop
 endfacet
 facet normal -2.835964e-01 -9.589437e-01  2.702089e-04
   outer loop
     vertex  4.739478e-04  2.454664e-03  7.024416e-03
     vertex  4.684533e-04  2.455718e-03  5.000000e-03
     vertex  9.376064e-04  2.317519e-03  6.942661e-03
   endloop
 endfacet
 facet normal -3.090095e-01 -9.510334e-01  6.970212e-03
   outer loop
     vertex  9.376064e-04  2.317519e-03  6.942661e-03
     vertex  4.684533e-04  2.455718e-03  5.000000e-03
     vertex  1.064448e-03  2.262068e-03  5.000000e-03
   endloop
 endfacet
 facet normal -5.358268e-01 -8.443279e-01 -2.118245e-04
   outer loop
     vertex  1.593560e-03  1.926283e-03  1.000000e-01
     vertex  1.064448e-03  2.262068e-03  1.000000e-01
     vertex  1.366193e-03  2.093685e-03  7.882516e-03
   endloop
 endfacet
 facet normal -5.357975e-01 -8.442818e-01  1.045031e-02
   outer loop
     vertex  1.366193e-03  2.093685e-03  6.867090e-03
     vertex  1.064448e-03  2.262068e-03  5.000000e-03
     vertex  1.593560e-03  1.926283e-03  5.000000e-03
   endloop
 endfacet
 facet normal -7.289686e-01 -6.845471e-01 -1.864499e-04
   outer loop
     vertex  2.022542e-03  1.469463e-03  1.000000e-01
     vertex  1.593560e-03  1.926283e-03  1.000000e-01
     vertex  1.743675e-03  1.791535e-03  7.815956e-03
   endloop
 endfacet
 facet normal -7.289354e-01 -6.845159e-01  9.545484e-03
   outer loop
     vertex  1.743675e-03  1.791535e-03  6.800529e-03
     vertex  1.593560e-03  1.926283e-03  5.000000e-03
     vertex  2.022542e-03  1.469463e-03  5.000000e-03
   endloop
 endfacet
 facet normal -7.634962e-01 -6.458123e-01  5.333122e-05
   outer loop
     vertex  2.022542e-03  1.469463e-03  1.000000e-01
     vertex  1.743675e-03  1.791535e-03  7.815956e-03
     vertex  2.055934e-03  1.422370e-03  7.760896e-03
   endloop
 endfacet
 facet normal -8.763067e-01 -4.817537e-01 -1.011888e-04
   outer loop
     vertex  2.324441e-03  9.203114e-04  1.000000e-01
     vertex  2.022542e-03  1.469463e-03  1.000000e-01
     vertex  2.291288e-03  1.000000e-03  7.719397e-03
   endloop
 endfacet
 facet normal -8.735412e-01 -4.867502e-01 -6.771595e-05
   outer loop
     vertex  2.022542e-03  1.469463e-03  1.000000e-01
     vertex  2.055934e-03  1.422370e-03  7.760896e-03
     vertex  2.291288e-03  1.000000e-03  7.719397e-03
   endloop
 endfacet
 facet normal -8.733837e-01 -4.870197e-01  3.568156e-03
   outer loop
     vertex  2.055934e-03  1.422370e-03  6.745470e-03
     vertex  2.022542e-03  1.469463e-03  5.000000e-03
     vertex  2.291288e-03  1.000000e-03  6.703970e-03
   endloop
 endfacet
 facet normal -8.762935e-01 -4.817464e-01  5.479923e-03
   outer loop
     vertex  2.291288e-03  1.000000e-03  6.703970e-03
     vertex  2.022542e-03  1.469463e-03  5.000000e-03
     vertex  2.324441e-03  9.203114e-04  5.000000e-03
   endloop
 endfacet
 facet normal -9.232834e-01 -3.841195e-01  0.000000e+00
   outer loop
     vertex  2.324441e-03  9.203114e-04  1.000000e-01
     vertex  2.291288e-03  1.000000e-03  7.719397e-03
     vertex  2.324441e-03  9.203114e-04  5.000000e-03
   endloop
 endfacet
 facet normal  9.232834e-01  3.841195e-01 -3.943272e-16
   outer loop
     vertex  2.324441e-03  9.203114e-04  5.000000e-03
     vertex  2.291288e-03  1.000000e-03  6.703970e-03
     vertex  2.291288e-03  1.000000e-03  7.719397e-03
   endloop
 endfacet
 facet normal -9.685832e-01 -2.486899e-01 -0.000000e+00
   outer loop
     vertex  2.324441e-03  9.203114e-04  1.000000e-01
     vertex  2.324441e-03  9.203114e-04  5.000000e-03
     vertex  2.480287e-03  3.133331e-04  5.000000e-03
   endloop
 endfacet
 facet normal -9.685832e-01 -2.486899e-01  0.000000e+00
   outer loop
     vertex  2.480287e-03  3.133331e-04  1.000000e-01
     vertex  2.324441e-03  9.203114e-04  1.000000e-01
     vertex  2.480287e-03  3.133331e-04  5.000000e-03
   endloop
 endfacet
 facet normal -1.000000e+00 -6.920445e-16  0.000000e+00
   outer loop
     vertex  2.480287e-03 -3.133331e-04  1.000000e-01
     vertex  2.480287e-03  3.133331e-04  1.000000e-01
     vertex  2.480287e-03 -3.133331e-04  5.000000e-03
   endloop
 endfacet
 facet normal -1.000000e+00 -6.920445e-16 -0.000000e+00
   outer loop
     vertex  2.480287e-03  3.133331e-04  1.000000e-01
     vertex  2.480287e-03  3.133331e-04  5.000000e-03
     vertex  2.480287e-03 -3.133331e-04  5.000000e-03
   endloop
 endfacet
 facet normal -9.685832e-01  2.486899e-01  0.000000e+00
   outer loop
     vertex  2.324441e-03 -9.203114e-04  1.000000e-01
     vertex  2.480287e-03 -3.133331e-04  1.000000e-01
     vertex  2.324441e-03 -9.203114e-04  5.000000e-03
   endloop
 endfacet
 facet normal -9.685832e-01  2.486899e-01  0.000000e+00
   outer loop
     vertex  2.480287e-03 -3.133331e-04  1.000000e-01
     vertex  2.480287e-03 -3.133331e-04  5.000000e-03
     vertex  2.324441e-03 -9.203114e-04  5.000000e-03
   endloop
 endfacet
 facet normal -8.763067e-01  4.817537e-01 -1.020827e-04
   outer loop
     vertex  2.022542e-03 -1.469463e-03  1.000000e-01
     vertex  2.324441e-03 -9.203114e-04  1.000000e-01
     vertex  2.291288e-03 -1.000000e-03  8.527429e-03
   endloop
 endfacet
 facet normal -9.232834e-01  3.841195e-01  0.000000e+00
   outer loop
     vertex  2.324441e-03 -9.203114e-04  1.000000e-01
     vertex  2.324441e-03 -9.203114e-04  5.000000e-03
     vertex  2.291288e-03 -1.000000e-03  8.527429e-03
   endloop
 endfacet
 facet normal  9.232834e-01 -3.841195e-01  0.000000e+00
   outer loop
     vertex  2.291288e-03 -1.000000e-03  7.512002e-03
     vertex  2.324441e-03 -9.203114e-04  5.000000e-03
     vertex  2.291288e-03 -1.000000e-03  8.527429e-03
   endloop
 endfacet
 facet normal -8.742584e-01  4.854608e-01 -7.703883e-05
   outer loop
     vertex  2.022542e-03 -1.469463e-03  1.000000e-01
     vertex  2.291288e-03 -1.000000e-03  8.527429e-03
     vertex  2.060157e-03 -1.416246e-03  8.486674e-03
   endloop
 endfacet
 facet normal -8.743768e-01  4.852391e-01  2.859420e-03
   outer loop
     vertex  2.060157e-03 -1.416246e-03  7.471248e-03
     vertex  2.291288e-03 -1.000000e-03  7.512002e-03
     vertex  2.022542e-03 -1.469463e-03  5.000000e-03
   endloop
 endfacet
 facet normal -8.763006e-01  4.817503e-01  3.717235e-03
   outer loop
     vertex  2.291288e-03 -1.000000e-03  7.512002e-03
     vertex  2.324441e-03 -9.203114e-04  5.000000e-03
     vertex  2.022542e-03 -1.469463e-03  5.000000e-03
   endloop
 endfacet
 facet normal -7.289686e-01  6.845471e-01 -1.945246e-04
   outer loop
     vertex  1.593560e-03 -1.926283e-03  1.000000e-01
     vertex  2.022542e-03 -1.469463e-03  1.000000e-01
     vertex  1.754307e-03 -1.781126e-03  8.432744e-03
   endloop
 endfacet
 facet normal -7.663794e-01  6.423882e-01  5.855995e-05
   outer loop
     vertex  2.022542e-03 -1.469463e-03  1.000000e-01
     vertex  2.060157e-03 -1.416246e-03  8.486674e-03
     vertex  1.754307e-03 -1.781126e-03  8.432744e-03
   endloop
 endfacet
 facet normal -7.289488e-01  6.845285e-01  7.368331e-03
   outer loop
     vertex  1.754307e-03 -1.781126e-03  7.417318e-03
     vertex  2.022542e-03 -1.469463e-03  5.000000e-03
     vertex  1.593560e-03 -1.926283e-03  5.000000e-03
   endloop
 endfacet
 facet normal -5.358268e-01  8.443279e-01 -2.104038e-04
   outer loop
     vertex  1.064448e-03 -2.262068e-03  1.000000e-01
     vertex  1.593560e-03 -1.926283e-03  1.000000e-01
     vertex  1.378629e-03 -2.085517e-03  8.366502e-03
   endloop
 endfacet
 facet normal -5.358088e-01  8.442995e-01  8.200241e-03
   outer loop
     vertex  1.378629e-03 -2.085517e-03  7.351076e-03
     vertex  1.593560e-03 -1.926283e-03  5.000000e-03
     vertex  1.064448e-03 -2.262068e-03  5.000000e-03
   endloop
 endfacet
 facet normal -3.090170e-01  9.510565e-01 -1.357784e-04
   outer loop
     vertex  4.684533e-04 -2.455718e-03  1.000000e-01
     vertex  1.064448e-03 -2.262068e-03  1.000000e-01
     vertex  9.513822e-04 -2.311898e-03  8.291167e-03
   endloop
 endfacet
 facet normal -4.682099e-01  8.836173e-01  9.713073e-05
   outer loop
     vertex  1.064448e-03 -2.262068e-03  1.000000e-01
     vertex  1.378629e-03 -2.085517e-03  8.366502e-03
     vertex  9.513822e-04 -2.311898e-03  8.291167e-03
   endloop
 endfacet
 facet normal -2.893385e-01  9.572268e-01 -2.247705e-05
   outer loop
     vertex  4.684533e-04 -2.455718e-03  1.000000e-01
     vertex  9.513822e-04 -2.311898e-03  8.291167e-03
     vertex  4.885481e-04 -2.451800e-03  8.209557e-03
   endloop
 endfacet
 facet normal -3.090124e-01  9.510423e-01  5.471577e-03
   outer loop
     vertex  9.513822e-04 -2.311898e-03  7.275741e-03
     vertex  1.064448e-03 -2.262068e-03  5.000000e-03
     vertex  4.684533e-04 -2.455718e-03  5.000000e-03
   endloop
 endfacet
 facet normal -2.894942e-01  9.571793e-01  9.418275e-04
   outer loop
     vertex  4.885481e-04 -2.451800e-03  7.194130e-03
     vertex  9.513822e-04 -2.311898e-03  7.275741e-03
     vertex  4.684533e-04 -2.455718e-03  5.000000e-03
   endloop
 endfacet
 facet normal -6.279052e-02  9.980267e-01 -1.658350e-04
   outer loop
     vertex -1.569763e-04 -2.495067e-03  1.000000e-01
     vertex  4.684533e-04 -2.455718e-03  1.000000e-01
     vertex  7.439244e-06 -2.499989e-03  8.124725e-03
   endloop
 endfacet
 facet normal -9.966817e-02  9.950207e-01  2.065907e-05
   outer loop
     vertex  4.684533e-04 -2.455718e-03  1.000000e-01
     vertex  4.885481e-04 -2.451800e-03  8.209557e-03
     vertex  7.439244e-06 -2.499989e-03  8.124725e-03
   endloop
 endfacet
 facet normal -6.278888e-02  9.980007e-01  7.223132e-03
   outer loop
     vertex  7.439244e-06 -2.499989e-03  7.109298e-03
     vertex  4.684533e-04 -2.455718e-03  5.000000e-03
     vertex -1.569763e-04 -2.495067e-03  5.000000e-03
   endloop
 endfacet
 facet normal  1.873813e-01  9.822872e-01 -2.142992e-04
   outer loop
     vertex -7.725425e-04 -2.377641e-03  1.000000e-01
     vertex -1.569763e-04 -2.495067e-03  1.000000e-01
     vertex -4.739478e-04 -2.454664e-03  8.039843e-03
   endloop
 endfacet
 facet normal  1.873724e-01  9.822407e-01  9.734189e-03
   outer loop
     vertex -4.739478e-04 -2.454664e-03  7.024416e-03
     vertex -1.569763e-04 -2.495067e-03  5.000000e-03
     vertex -7.725425e-04 -2.377641e-03  5.000000e-03
   endloop
 endfacet
 facet normal  4.257793e-01  9.048270e-01 -1.725356e-04
   outer loop
     vertex -1.339567e-03 -2.110820e-03  1.000000e-01
     vertex -7.725425e-04 -2.377641e-03  1.000000e-01
     vertex -9.376064e-04 -2.317519e-03  7.958088e-03
   endloop
 endfacet
 facet normal  4.629252e-01  8.863974e-01  3.107360e-05
   outer loop
     vertex -1.339567e-03 -2.110820e-03  1.000000e-01
     vertex -9.376064e-04 -2.317519e-03  7.958088e-03
     vertex -1.366193e-03 -2.093685e-03  7.882516e-03
   endloop
 endfacet
 facet normal  4.257651e-01  9.047968e-01  8.174343e-03
   outer loop
     vertex -9.376064e-04 -2.317519e-03  6.942661e-03
     vertex -7.725425e-04 -2.377641e-03  5.000000e-03
     vertex -1.339567e-03 -2.110820e-03  5.000000e-03
   endloop
 endfacet
 facet normal  6.249062e-01  7.806999e-01 -3.540648e-05
   outer loop
     vertex -1.339567e-03 -2.110820e-03  1.000000e-01
     vertex -1.366193e-03 -2.093685e-03  7.882516e-03
     vertex -1.743675e-03 -1.791535e-03  7.815956e-03
   endloop
 endfacet
 facet normal  6.374240e-01  7.705132e-01 -1.255629e-04
   outer loop
     vertex -1.822422e-03 -1.711368e-03  1.000000e-01
     vertex -1.339567e-03 -2.110820e-03  1.000000e-01
     vertex -1.743675e-03 -1.791535e-03  7.815956e-03
   endloop
 endfacet
 facet normal  6.247141e-01  7.808516e-01  1.742735e-03
   outer loop
     vertex -1.366193e-03 -2.093685e-03  6.867090e-03
     vertex -1.339567e-03 -2.110820e-03  5.000000e-03
     vertex -1.743675e-03 -1.791535e-03  6.800529e-03
   endloop
 endfacet
 facet normal  6.374108e-01  7.704973e-01  6.428474e-03
   outer loop
     vertex -1.743675e-03 -1.791535e-03  6.800529e-03
     vertex -1.339567e-03 -2.110820e-03  5.000000e-03
     vertex -1.822422e-03 -1.711368e-03  5.000000e-03
   endloop
 endfacet
 facet normal  7.634935e-01  6.458155e-01  9.057135e-05
   outer loop
     vertex -1.822422e-03 -1.711368e-03  1.000000e-01
     vertex -1.743675e-03 -1.791535e-03  7.815956e-03
     vertex -2.055934e-03 -1.422370e-03  7.760896e-03
   endloop
 endfacet
 facet normal  8.090170e-01  5.877852e-01 -2.064927e-04
   outer loop
     vertex -2.190767e-03 -1.204384e-03  1.000000e-01
     vertex -1.822422e-03 -1.711368e-03  1.000000e-01
     vertex -2.055934e-03 -1.422370e-03  7.760896e-03
   endloop
 endfacet
 facet normal  8.089688e-01  5.877503e-01  1.091143e-02
   outer loop
     vertex -2.055934e-03 -1.422370e-03  6.745470e-03
     vertex -1.822422e-03 -1.711368e-03  5.000000e-03
     vertex -2.190767e-03 -1.204384e-03  5.000000e-03
   endloop
 endfacet
 facet normal  9.297765e-01  3.681245e-01 -1.974777e-04
   outer loop
     vertex -2.421458e-03 -6.217247e-04  1.000000e-01
     vertex -2.190767e-03 -1.204384e-03  1.000000e-01
     vertex -2.291288e-03 -1.000000e-03  7.719397e-03
   endloop
 endfacet
 facet normal  9.455806e-01  3.253881e-01  0.000000e+00
   outer loop
     vertex -2.421458e-03 -6.217247e-04  1.000000e-01
     vertex -2.291288e-03 -1.000000e-03  7.719397e-03
     vertex -2.421458e-03 -6.217247e-04  5.000000e-03
   endloop
 endfacet
 facet normal  9.297233e-01  3.681035e-01  1.069404e-02
   outer loop
     vertex -2.291288e-03 -1.000000e-03  6.703970e-03
     vertex -2.190767e-03 -1.204384e-03  5.000000e-03
     vertex -2.421458e-03 -6.217247e-04  5.000000e-03
   endloop
 endfacet
 facet normal  9.455806e-01  3.253881e-01 -4.038502e-16
   outer loop
     vertex -2.291288e-03 -1.000000e-03  7.719397e-03
     vertex -2.291288e-03 -1.000000e-03  6.703970e-03
     vertex -2.421458e-03 -6.217247e-04  5.000000e-03
   endloop
 endfacet
 facet normal  9.921147e-01  1.253332e-01  0.000000e+00
   outer loop
     vertex -2.421458e-03 -6.217247e-04  1.000000e-01
     vertex -2.421458e-03 -6.217247e-04  5.000000e-03
     vertex -2.500000e-03  0.000000e+00  5.000000e-03
   endloop
 endfacet
 facet normal  9.921147e-01  1.253332e-01  0.000000e+00
   outer loop
     vertex -2.500000e-03  0.000000e+00  1.000000e-01
     vertex -2.421458e-03 -6.217247e-04  1.000000e-01
     vertex -2.500000e-03  0.000000e+00  5.000000e-03
   endloop
 endfacet
 facet normal -7.637036e-01 -6.455610e-01 -2.807534e-03
   outer loop
     vertex  2.022542e-03  1.469463e-03  5.000000e-03
     vertex  2.055934e-03  1.422370e-03  6.745470e-03
     vertex  1.743675e-03  1.791535e-03  6.800529e-03
   endloop
 endfacet
 facet normal -6.255596e-01 -7.801515e-01 -6.230455e-03
   outer loop
     vertex  1.593560e-03  1.926283e-03  5.000000e-03
     vertex  1.743675e-03  1.791535e-03  6.800529e-03
     vertex  1.366193e-03  2.093685e-03  6.867090e-03
   endloop
 endfacet
 facet normal -4.636135e-01 -8.860235e-01 -4.979964e-03
   outer loop
     vertex  1.064448e-03  2.262068e-03  5.000000e-03
     vertex  1.366193e-03  2.093685e-03  6.867090e-03
     vertex  9.376064e-04  2.317519e-03  6.942661e-03
   endloop
 endfacet
 facet normal -9.378721e-02 -9.955922e-01 -2.640511e-04
   outer loop
     vertex  4.684533e-04  2.455718e-03  5.000000e-03
     vertex  4.739478e-04  2.454664e-03  7.024416e-03
     vertex -7.439244e-06  2.499989e-03  7.109298e-03
   endloop
 endfacet
 facet normal  9.884546e-02 -9.950918e-01 -4.685496e-03
   outer loop
     vertex -1.569763e-04  2.495067e-03  5.000000e-03
     vertex -7.439244e-06  2.499989e-03  7.109298e-03
     vertex -4.885481e-04  2.451800e-03  7.194130e-03
   endloop
 endfacet
 facet normal  2.885330e-01 -9.574570e-01 -4.985328e-03
   outer loop
     vertex -7.725425e-04  2.377641e-03  5.000000e-03
     vertex -4.885481e-04  2.451800e-03  7.194130e-03
     vertex -9.513822e-04  2.311898e-03  7.275741e-03
   endloop
 endfacet
 facet normal  4.679568e-01 -8.837496e-01 -1.736147e-03
   outer loop
     vertex -1.339567e-03  2.110820e-03  5.000000e-03
     vertex -9.513822e-04  2.311898e-03  7.275741e-03
     vertex -1.378629e-03  2.085517e-03  7.351076e-03
   endloop
 endfacet
 facet normal  7.661501e-01 -6.426545e-01 -3.043094e-03
   outer loop
     vertex -1.822422e-03  1.711368e-03  5.000000e-03
     vertex -1.754307e-03  1.781126e-03  7.417318e-03
     vertex -2.060157e-03  1.416246e-03  7.471248e-03
   endloop
 endfacet
 facet normal  8.740635e-01 -4.857904e-01 -4.548566e-03
   outer loop
     vertex -2.190767e-03  1.204384e-03  5.000000e-03
     vertex -2.060157e-03  1.416246e-03  7.471248e-03
     vertex -2.291288e-03  1.000000e-03  7.512002e-03
   endloop
 endfacet
 facet normal -6.248891e-01 -7.807135e-01  1.236060e-04
   outer loop
     vertex  1.593560e-03  1.926283e-03  1.000000e-01
     vertex  1.366193e-03  2.093685e-03  7.882516e-03
     vertex  1.743675e-03  1.791535e-03  7.815956e-03
   endloop
 endfacet
 facet normal -4.629151e-01 -8.864026e-01  1.039175e-04
   outer loop
     vertex  1.064448e-03  2.262068e-03  1.000000e-01
     vertex  9.376064e-04  2.317519e-03  7.958088e-03
     vertex  1.366193e-03  2.093685e-03  7.882516e-03
   endloop
 endfacet
 facet normal  2.893618e-01 -9.572198e-01  1.219238e-04
   outer loop
     vertex -7.725425e-04  2.377641e-03  1.000000e-01
     vertex -9.513822e-04  2.311898e-03  8.291167e-03
     vertex -4.885481e-04  2.451800e-03  8.209557e-03
   endloop
 endfacet
 facet normal  8.742668e-01 -4.854458e-01  1.239185e-04
   outer loop
     vertex -2.190767e-03  1.204384e-03  1.000000e-01
     vertex -2.291288e-03  1.000000e-03  8.527429e-03
     vertex -2.060157e-03  1.416246e-03  8.486674e-03
   endloop
 endfacet
 facet normal  8.735331e-01  4.867648e-01  1.265539e-04
   outer loop
     vertex -2.190767e-03 -1.204384e-03  1.000000e-01
     vertex -2.055934e-03 -1.422370e-03  7.760896e-03
     vertex -2.291288e-03 -1.000000e-03  7.719397e-03
   endloop
 endfacet
 facet normal  2.836211e-01  9.589364e-01  1.177492e-04
   outer loop
     vertex -7.725425e-04 -2.377641e-03  1.000000e-01
     vertex -4.739478e-04 -2.454664e-03  8.039843e-03
     vertex -9.376064e-04 -2.317519e-03  7.958088e-03
   endloop
 endfacet
 facet normal  9.372107e-02  9.955985e-01  1.143807e-04
   outer loop
     vertex -1.569763e-04 -2.495067e-03  1.000000e-01
     vertex  7.439244e-06 -2.499989e-03  8.124725e-03
     vertex -4.739478e-04 -2.454664e-03  8.039843e-03
   endloop
 endfacet
 facet normal -6.295510e-01  7.769591e-01  1.264999e-04
   outer loop
     vertex  1.593560e-03 -1.926283e-03  1.000000e-01
     vertex  1.754307e-03 -1.781126e-03  8.432744e-03
     vertex  1.378629e-03 -2.085517e-03  8.366502e-03
   endloop
 endfacet
 facet normal  8.738012e-01  4.862361e-01 -6.774458e-03
   outer loop
     vertex -2.190767e-03 -1.204384e-03  5.000000e-03
     vertex -2.291288e-03 -1.000000e-03  6.703970e-03
     vertex -2.055934e-03 -1.422370e-03  6.745470e-03
   endloop
 endfacet
 facet normal  7.638352e-01  6.453944e-01 -4.670794e-03
   outer loop
     vertex -1.822422e-03 -1.711368e-03  5.000000e-03
     vertex -2.055934e-03 -1.422370e-03  6.745470e-03
     vertex -1.743675e-03 -1.791535e-03  6.800529e-03
   endloop
 endfacet
 facet normal  4.631407e-01  8.862834e-01 -1.528973e-03
   outer loop
     vertex -1.339567e-03 -2.110820e-03  5.000000e-03
     vertex -1.366193e-03 -2.093685e-03  6.867090e-03
     vertex -9.376064e-04 -2.317519e-03  6.942661e-03
   endloop
 endfacet
 facet normal  2.845265e-01  9.586524e-01 -5.493159e-03
   outer loop
     vertex -7.725425e-04 -2.377641e-03  5.000000e-03
     vertex -9.376064e-04 -2.317519e-03  6.942661e-03
     vertex -4.739478e-04 -2.454664e-03  7.024416e-03
   endloop
 endfacet
 facet normal  9.462291e-02  9.955004e-01 -5.052636e-03
   outer loop
     vertex -1.569763e-04 -2.495067e-03  5.000000e-03
     vertex -4.739478e-04 -2.454664e-03  7.024416e-03
     vertex  7.439244e-06 -2.499989e-03  7.109298e-03
   endloop
 endfacet
 facet normal -9.951339e-02  9.950358e-01 -8.657071e-04
   outer loop
     vertex  4.684533e-04 -2.455718e-03  5.000000e-03
     vertex  7.439244e-06 -2.499989e-03  7.109298e-03
     vertex  4.885481e-04 -2.451800e-03  7.194130e-03
   endloop
 endfacet
 facet normal -4.676587e-01  8.839006e-01 -3.880626e-03
   outer loop
     vertex  1.064448e-03 -2.262068e-03  5.000000e-03
     vertex  9.513822e-04 -2.311898e-03  7.275741e-03
     vertex  1.378629e-03 -2.085517e-03  7.351076e-03
   endloop
 endfacet
 facet normal -6.290135e-01  7.773793e-01 -4.852752e-03
   outer loop
     vertex  1.593560e-03 -1.926283e-03  5.000000e-03
     vertex  1.378629e-03 -2.085517e-03  7.351076e-03
     vertex  1.754307e-03 -1.781126e-03  7.417318e-03
   endloop
 endfacet
 facet normal -7.662150e-01  6.425806e-01 -2.175191e-03
   outer loop
     vertex  2.022542e-03 -1.469463e-03  5.000000e-03
     vertex  1.754307e-03 -1.781126e-03  7.417318e-03
     vertex  2.060157e-03 -1.416246e-03  7.471248e-03
   endloop
 endfacet
 facet normal  0.000000e+00 -1.000000e+00  0.000000e+00
   outer loop
     vertex  2.291288e-03  1.000000e-03  6.703970e-03
     vertex  6.139576e-03  1.000000e-03  6.025413e-03
     vertex  6.313224e-03  1.000000e-03  7.010221e-03
   endloop
 endfacet
 facet normal  0.000000e+00 -1.000000e+00 -0.000000e+00
   outer loop
     vertex  2.291288e-03  1.000000e-03  7.719397e-03
     vertex  2.291288e-03  1.000000e-03  6.703970e-03
     vertex  6.313224e-03  1.000000e-03  7.010221e-03
   endloop
 endfacet
 facet normal -1.736482e-01 -7.070279e-16 -9.848078e-01
   outer loop
     vertex -2.291288e-03  1.000000e-03  7.512002e-03
     vertex -3.708502e-03  1.000000e-03  7.761895e-03
     vertex -2.060157e-03  1.416246e-03  7.471248e-03
   endloop
 endfacet
 facet normal -1.736482e-01 -1.319495e-15 -9.848078e-01
   outer loop
     vertex -2.060157e-03  1.416246e-03  7.471248e-03
     vertex -3.708502e-03  1.000000e-03  7.761895e-03
     vertex -1.754307e-03  1.781126e-03  7.417318e-03
   endloop
 endfacet
 facet normal -1.736482e-01  3.805633e-15 -9.848078e-01
   outer loop
     vertex -1.754307e-03  1.781126e-03  7.417318e-03
     vertex -3.708502e-03  1.000000e-03  7.761895e-03
     vertex -1.378629e-03  2.085517e-03  7.351076e-03
   endloop
 endfacet
 facet normal -1.736482e-01 -2.084897e-16 -9.848078e-01
   outer loop
     vertex  2.291288e-03  1.000000e-03  6.703970e-03
     vertex  2.055934e-03  1.422370e-03  6.745470e-03
     vertex  6.139576e-03  1.000000e-03  6.025413e-03
   endloop
 endfacet
 facet normal -1.736482e-01  2.122328e-15 -9.848078e-01
   outer loop
     vertex  2.055934e-03  1.422370e-03  6.745470e-03
     vertex  1.743675e-03  1.791535e-03  6.800529e-03
     vertex  6.139576e-03  1.000000e-03  6.025413e-03
   endloop
 endfacet
 facet normal -1.736482e-01 -2.076432e-15 -9.848078e-01
   outer loop
     vertex  1.743675e-03  1.791535e-03  6.800529e-03
     vertex  1.366193e-03  2.093685e-03  6.867090e-03
     vertex  6.139576e-03  1.000000e-03  6.025413e-03
   endloop
 endfacet
 facet normal -1.736482e-01 -4.855933e-17 -9.848078e-01
   outer loop
     vertex  4.739478e-04  2.454664e-03  7.024416e-03
     vertex -7.439244e-06  2.499989e-03  7.109298e-03
     vertex -3.708502e-03  1.400000e-02  7.761895e-03
   endloop
 endfacet
 facet normal -1.736482e-01 -6.390125e-17 -9.848078e-01
   outer loop
     vertex -7.439244e-06  2.499989e-03  7.109298e-03
     vertex -4.885481e-04  2.451800e-03  7.194130e-03
     vertex -3.708502e-03  1.400000e-02  7.761895e-03
   endloop
 endfacet
 facet normal -1.736482e-01  7.646610e-17 -9.848078e-01
   outer loop
     vertex -4.885481e-04  2.451800e-03  7.194130e-03
     vertex -9.513822e-04  2.311898e-03  7.275741e-03
     vertex -3.708502e-03  1.400000e-02  7.761895e-03
   endloop
 endfacet
 facet normal -1.736482e-01 -4.640137e-17 -9.848078e-01
   outer loop
     vertex -9.513822e-04  2.311898e-03  7.275741e-03
     vertex -1.378629e-03  2.085517e-03  7.351076e-03
     vertex -3.708502e-03  1.400000e-02  7.761895e-03
   endloop
 endfacet
 facet normal -1.736482e-01  0.000000e+00 -9.848078e-01
   outer loop
     vertex -1.378629e-03  2.085517e-03  7.351076e-03
     vertex -3.708502e-03  1.000000e-03  7.761895e-03
     vertex -3.708502e-03  1.400000e-02  7.761895e-03
   endloop
 endfacet
 facet normal -1.736482e-01  4.899830e-16 -9.848078e-01
   outer loop
     vertex  1.366193e-03  2.093685e-03  6.867090e-03
     vertex  9.376064e-04  2.317519e-03  6.942661e-03
     vertex  6.139576e-03  1.400000e-02  6.025413e-03
   endloop
 endfacet
 facet normal -1.736482e-01 -6.208501e-16 -9.848078e-01
   outer loop
     vertex  9.376064e-04  2.317519e-03  6.942661e-03
     vertex  4.739478e-04  2.454664e-03  7.024416e-03
     vertex  6.139576e-03  1.400000e-02  6.025413e-03
   endloop
 endfacet
 facet normal -1.736482e-01  5.869265e-17 -9.848078e-01
   outer loop
     vertex  4.739478e-04  2.454664e-03  7.024416e-03
     vertex -3.708502e-03  1.400000e-02  7.761895e-03
     vertex  6.139576e-03  1.400000e-02  6.025413e-03
   endloop
 endfacet
 facet normal -1.736482e-01  0.000000e+00 -9.848078e-01
   outer loop
     vertex  6.139576e-03  1.000000e-03  6.025413e-03
     vertex  1.366193e-03  2.093685e-03  6.867090e-03
     vertex  6.139576e-03  1.400000e-02  6.025413e-03
   endloop
 endfacet
 facet normal  9.848078e-01  0.000000e+00 -1.736482e-01
   outer loop
     vertex  6.313224e-03  1.000000e-03  7.010221e-03
     vertex  6.139576e-03  1.400000e-02  6.025413e-03
     vertex  6.313224e-03  1.400000e-02  7.010221e-03
   endloop
 endfacet
 facet normal  9.848078e-01  0.000000e+00 -1.736482e-01
   outer loop
     vertex  6.313224e-03  1.000000e-03  7.010221e-03
     vertex  6.139576e-03  1.000000e-03  6.025413e-03
     vertex  6.139576e-03  1.400000e-02  6.025413e-03
   endloop
 endfacet
 facet normal  1.736482e-01 -1.410072e-15  9.848078e-01
   outer loop
     vertex -2.060157e-03  1.416246e-03  8.486674e-03
     vertex -3.534853e-03  1.000000e-03  8.746703e-03
     vertex -2.291288e-03  1.000000e-03  8.527429e-03
   endloop
 endfacet
 facet normal  1.736482e-01 -1.269185e-15  9.848078e-01
   outer loop
     vertex -1.754307e-03  1.781126e-03  8.432744e-03
     vertex -3.534853e-03  1.000000e-03  8.746703e-03
     vertex -2.060157e-03  1.416246e-03  8.486674e-03
   endloop
 endfacet
 facet normal  1.736482e-01 -2.097729e-15  9.848078e-01
   outer loop
     vertex -1.378629e-03  2.085517e-03  8.366502e-03
     vertex -3.534853e-03  1.000000e-03  8.746703e-03
     vertex -1.754307e-03  1.781126e-03  8.432744e-03
   endloop
 endfacet
 facet normal  1.736482e-01 -1.595905e-15  9.848078e-01
   outer loop
     vertex  6.313224e-03  1.000000e-03  7.010221e-03
     vertex  2.055934e-03  1.422370e-03  7.760896e-03
     vertex  2.291288e-03  1.000000e-03  7.719397e-03
   endloop
 endfacet
 facet normal  1.736482e-01 -1.882987e-15  9.848078e-01
   outer loop
     vertex  6.313224e-03  1.000000e-03  7.010221e-03
     vertex  1.743675e-03  1.791535e-03  7.815956e-03
     vertex  2.055934e-03  1.422370e-03  7.760896e-03
   endloop
 endfacet
 facet normal  1.736482e-01  2.409430e-15  9.848078e-01
   outer loop
     vertex  6.313224e-03  1.000000e-03  7.010221e-03
     vertex  1.366193e-03  2.093685e-03  7.882516e-03
     vertex  1.743675e-03  1.791535e-03  7.815956e-03
   endloop
 endfacet
 facet normal  1.736482e-01 -4.363941e-16  9.848078e-01
   outer loop
     vertex -3.534853e-03  1.400000e-02  8.746703e-03
     vertex -7.439244e-06  2.499989e-03  8.124725e-03
     vertex  4.739478e-04  2.454664e-03  8.039843e-03
   endloop
 endfacet
 facet normal  1.736482e-01  6.673766e-16  9.848078e-01
   outer loop
     vertex -3.534853e-03  1.400000e-02  8.746703e-03
     vertex -4.885481e-04  2.451800e-03  8.209557e-03
     vertex -7.439244e-06  2.499989e-03  8.124725e-03
   endloop
 endfacet
 facet normal  1.736482e-01  6.775410e-17  9.848078e-01
   outer loop
     vertex -3.534853e-03  1.400000e-02  8.746703e-03
     vertex -9.513822e-04  2.311898e-03  8.291167e-03
     vertex -4.885481e-04  2.451800e-03  8.209557e-03
   endloop
 endfacet
 facet normal  1.736482e-01  1.822405e-16  9.848078e-01
   outer loop
     vertex -3.534853e-03  1.400000e-02  8.746703e-03
     vertex -1.378629e-03  2.085517e-03  8.366502e-03
     vertex -9.513822e-04  2.311898e-03  8.291167e-03
   endloop
 endfacet
 facet normal  1.736482e-01  0.000000e+00  9.848078e-01
   outer loop
     vertex -3.534853e-03  1.400000e-02  8.746703e-03
     vertex -3.534853e-03  1.000000e-03  8.746703e-03
     vertex -1.378629e-03  2.085517e-03  8.366502e-03
   endloop
 endfacet
 facet normal  1.736482e-01 -4.365457e-16  9.848078e-01
   outer loop
     vertex  6.313224e-03  1.400000e-02  7.010221e-03
     vertex  9.376064e-04  2.317519e-03  7.958088e-03
     vertex  1.366193e-03  2.093685e-03  7.882516e-03
   endloop
 endfacet
 facet normal  1.736482e-01 -3.388753e-17  9.848078e-01
   outer loop
     vertex  6.313224e-03  1.400000e-02  7.010221e-03
     vertex  4.739478e-04  2.454664e-03  8.039843e-03
     vertex  9.376064e-04  2.317519e-03  7.958088e-03
   endloop
 endfacet
 facet normal  1.736482e-01  1.027121e-16  9.848078e-01
   outer loop
     vertex  6.313224e-03  1.400000e-02  7.010221e-03
     vertex -3.534853e-03  1.400000e-02  8.746703e-03
     vertex  4.739478e-04  2.454664e-03  8.039843e-03
   endloop
 endfacet
 facet normal  1.736482e-01  0.000000e+00  9.848078e-01
   outer loop
     vertex  6.313224e-03  1.400000e-02  7.010221e-03
     vertex  1.366193e-03  2.093685e-03  7.882516e-03
     vertex  6.313224e-03  1.000000e-03  7.010221e-03
   endloop
 endfacet
 facet normal  0.000000e+00  1.000000e+00  0.000000e+00
   outer loop
     vertex  6.313224e-03  1.400000e-02  7.010221e-03
     vertex  6.139576e-03  1.400000e-02  6.025413e-03
     vertex -3.708502e-03  1.400000e-02  7.761895e-03
   endloop
 endfacet
 facet normal  0.000000e+00  1.000000e+00 -0.000000e+00
   outer loop
     vertex  6.313224e-03  1.400000e-02  7.010221e-03
     vertex -3.708502e-03  1.400000e-02  7.761895e-03
     vertex -3.534853e-03  1.400000e-02  8.746703e-03
   endloop
 endfacet
 facet normal -9.848078e-01  0.000000e+00  1.736482e-01
   outer loop
     vertex -3.534853e-03  1.400000e-02  8.746703e-03
     vertex -3.708502e-03  1.400000e-02  7.761895e-03
     vertex -3.534853e-03  1.000000e-03  8.746703e-03
   endloop
 endfacet
 facet normal -9.848078e-01  0.000000e+00  1.736482e-01
   outer loop
     vertex -3.708502e-03  1.400000e-02  7.761895e-03
     vertex -3.708502e-03  1.000000e-03  7.761895e-03
     vertex -3.534853e-03  1.000000e-03  8.746703e-03
   endloop
 endfacet
 facet normal  0.000000e+00 -1.000000e+00  0.000000e+00
   outer loop
     vertex -3.708502e-03  1.000000e-03  7.761895e-03
     vertex -2.291288e-03  1.000000e-03  7.512002e-03
     vertex -2.291288e-03  1.000000e-03  8.527429e-03
   endloop
 endfacet
 facet normal  0.000000e+00 -1.000000e+00 -0.000000e+00
   outer loop
     vertex -3.534853e-03  1.000000e-03  8.746703e-03
     vertex -3.708502e-03  1.000000e-03  7.761895e-03
     vertex -2.291288e-03  1.000000e-03  8.527429e-03
   endloop
 endfacet
 facet normal -1.736482e-01  2.896902e-15  9.848078e-01
   outer loop
     vertex -2.055934e-03 -1.422370e-03  7.760896e-03
     vertex -6.313224e-03 -1.000000e-03  7.010221e-03
     vertex -1.743675e-03 -1.791535e-03  7.815956e-03
   endloop
 endfacet
 facet normal -1.736482e-01  0.000000e+00  9.848078e-01
   outer loop
     vertex -1.366193e-03 -2.093685e-03  7.882516e-03
     vertex -6.313224e-03 -1.000000e-03  7.010221e-03
     vertex -6.313224e-03 -1.400000e-02  7.010221e-03
   endloop
 endfacet
 facet normal -1.736482e-01 -1.734790e-15  9.848078e-01
   outer loop
     vertex -1.366193e-03 -2.093685e-03  7.882516e-03
     vertex -1.743675e-03 -1.791535e-03  7.815956e-03
     vertex -6.313224e-03 -1.000000e-03  7.010221e-03
   endloop
 endfacet
 facet normal -1.736482e-01  1.718666e-15  9.848078e-01
   outer loop
     vertex -2.291288e-03 -1.000000e-03  7.719397e-03
     vertex -6.313224e-03 -1.000000e-03  7.010221e-03
     vertex -2.055934e-03 -1.422370e-03  7.760896e-03
   endloop
 endfacet
 facet normal -1.736482e-01 -7.807451e-16  9.848078e-01
   outer loop
     vertex -9.376064e-04 -2.317519e-03  7.958088e-03
     vertex -1.366193e-03 -2.093685e-03  7.882516e-03
     vertex -6.313224e-03 -1.400000e-02  7.010221e-03
   endloop
 endfacet
 facet normal -1.736482e-01 -4.401949e-17  9.848078e-01
   outer loop
     vertex -4.739478e-04 -2.454664e-03  8.039843e-03
     vertex -6.313224e-03 -1.400000e-02  7.010221e-03
     vertex  3.534853e-03 -1.400000e-02  8.746703e-03
   endloop
 endfacet
 facet normal -1.736482e-01  3.049878e-16  9.848078e-01
   outer loop
     vertex -4.739478e-04 -2.454664e-03  8.039843e-03
     vertex -9.376064e-04 -2.317519e-03  7.958088e-03
     vertex -6.313224e-03 -1.400000e-02  7.010221e-03
   endloop
 endfacet
 facet normal -1.736482e-01  3.200224e-16  9.848078e-01
   outer loop
     vertex  7.439244e-06 -2.499989e-03  8.124725e-03
     vertex -4.739478e-04 -2.454664e-03  8.039843e-03
     vertex  3.534853e-03 -1.400000e-02  8.746703e-03
   endloop
 endfacet
 facet normal -1.736482e-01 -7.405138e-16  9.848078e-01
   outer loop
     vertex  4.885481e-04 -2.451800e-03  8.209557e-03
     vertex  7.439244e-06 -2.499989e-03  8.124725e-03
     vertex  3.534853e-03 -1.400000e-02  8.746703e-03
   endloop
 endfacet
 facet normal -1.736482e-01 -2.890842e-16  9.848078e-01
   outer loop
     vertex  9.513822e-04 -2.311898e-03  8.291167e-03
     vertex  4.885481e-04 -2.451800e-03  8.209557e-03
     vertex  3.534853e-03 -1.400000e-02  8.746703e-03
   endloop
 endfacet
 facet normal -1.736482e-01  1.355122e-16  9.848078e-01
   outer loop
     vertex  1.378629e-03 -2.085517e-03  8.366502e-03
     vertex  9.513822e-04 -2.311898e-03  8.291167e-03
     vertex  3.534853e-03 -1.400000e-02  8.746703e-03
   endloop
 endfacet
 facet normal -1.736482e-01 -2.307501e-15  9.848078e-01
   outer loop
     vertex  3.534853e-03 -1.000000e-03  8.746703e-03
     vertex  1.754307e-03 -1.781126e-03  8.432744e-03
     vertex  1.378629e-03 -2.085517e-03  8.366502e-03
   endloop
 endfacet
 facet normal -1.736482e-01  1.554751e-15  9.848078e-01
   outer loop
     vertex  3.534853e-03 -1.000000e-03  8.746703e-03
     vertex  2.060157e-03 -1.416246e-03  8.486674e-03
     vertex  1.754307e-03 -1.781126e-03  8.432744e-03
   endloop
 endfacet
 facet normal -1.736482e-01  1.208633e-15  9.848078e-01
   outer loop
     vertex  3.534853e-03 -1.000000e-03  8.746703e-03
     vertex  2.291288e-03 -1.000000e-03  8.527429e-03
     vertex  2.060157e-03 -1.416246e-03  8.486674e-03
   endloop
 endfacet
 facet normal -1.736482e-01  0.000000e+00  9.848078e-01
   outer loop
     vertex  3.534853e-03 -1.000000e-03  8.746703e-03
     vertex  1.378629e-03 -2.085517e-03  8.366502e-03
     vertex  3.534853e-03 -1.400000e-02  8.746703e-03
   endloop
 endfacet
 facet normal  0.000000e+00  1.000000e+00  0.000000e+00
   outer loop
     vertex -2.291288e-03 -1.000000e-03  6.703970e-03
     vertex -6.139576e-03 -1.000000e-03  6.025413e-03
     vertex -6.313224e-03 -1.000000e-03  7.010221e-03
   endloop
 endfacet
 facet normal  0.000000e+00  1.000000e+00  0.000000e+00
   outer loop
     vertex -2.291288e-03 -1.000000e-03  7.719397e-03
     vertex -2.291288e-03 -1.000000e-03  6.703970e-03
     vertex -6.313224e-03 -1.000000e-03  7.010221e-03
   endloop
 endfacet
 facet normal -9.848078e-01  0.000000e+00 -1.736482e-01
   outer loop
     vertex -6.313224e-03 -1.000000e-03  7.010221e-03
     vertex -6.139576e-03 -1.000000e-03  6.025413e-03
     vertex -6.313224e-03 -1.400000e-02  7.010221e-03
   endloop
 endfacet
 facet normal -9.848078e-01 -0.000000e+00 -1.736482e-01
   outer loop
     vertex -6.139576e-03 -1.000000e-03  6.025413e-03
     vertex -6.139576e-03 -1.400000e-02  6.025413e-03
     vertex -6.313224e-03 -1.400000e-02  7.010221e-03
   endloop
 endfacet
 facet normal  0.000000e+00 -1.000000e+00  0.000000e+00
   outer loop
     vertex -6.139576e-03 -1.400000e-02  6.025413e-03
     vertex  3.708502e-03 -1.400000e-02  7.761895e-03
     vertex  3.534853e-03 -1.400000e-02  8.746703e-03
   endloop
 endfacet
 facet normal  0.000000e+00 -1.000000e+00  0.000000e+00
   outer loop
     vertex -6.313224e-03 -1.400000e-02  7.010221e-03
     vertex -6.139576e-03 -1.400000e-02  6.025413e-03
     vertex  3.534853e-03 -1.400000e-02  8.746703e-03
   endloop
 endfacet
 facet normal  0.000000e+00  1.000000e+00 -0.000000e+00
   outer loop
     vertex  3.708502e-03 -1.000000e-03  7.761895e-03
     vertex  2.291288e-03 -1.000000e-03  7.512002e-03
     vertex  2.291288e-03 -1.000000e-03  8.527429e-03
   endloop
 endfacet
 facet normal  0.000000e+00  1.000000e+00  0.000000e+00
   outer loop
     vertex  3.534853e-03 -1.000000e-03  8.746703e-03
     vertex  3.708502e-03 -1.000000e-03  7.761895e-03
     vertex  2.291288e-03 -1.000000e-03  8.527429e-03
   endloop
 endfacet
 facet normal  9.848078e-01  0.000000e+00  1.736482e-01
   outer loop
     vertex  3.534853e-03 -1.400000e-02  8.746703e-03
     vertex  3.708502e-03 -1.000000e-03  7.761895e-03
     vertex  3.534853e-03 -1.000000e-03  8.746703e-03
   endloop
 endfacet
 facet normal  9.848078e-01 -0.000000e+00  1.736482e-01
   outer loop
     vertex  3.534853e-03 -1.400000e-02  8.746703e-03
     vertex  3.708502e-03 -1.400000e-02  7.761895e-03
     vertex  3.708502e-03 -1.000000e-03  7.761895e-03
   endloop
 endfacet
 facet normal  1.736482e-01 -3.031897e-16 -9.848078e-01
   outer loop
     vertex -1.743675e-03 -1.791535e-03  6.800529e-03
     vertex -6.139576e-03 -1.000000e-03  6.025413e-03
     vertex -2.055934e-03 -1.422370e-03  6.745470e-03
   endloop
 endfacet
 facet normal  1.736482e-01  0.000000e+00 -9.848078e-01
   outer loop
     vertex -6.139576e-03 -1.400000e-02  6.025413e-03
     vertex -6.139576e-03 -1.000000e-03  6.025413e-03
     vertex -1.366193e-03 -2.093685e-03  6.867090e-03
   endloop
 endfacet
 facet normal  1.736482e-01 -2.532234e-15 -9.848078e-01
   outer loop
     vertex -6.139576e-03 -1.000000e-03  6.025413e-03
     vertex -1.743675e-03 -1.791535e-03  6.800529e-03
     vertex -1.366193e-03 -2.093685e-03  6.867090e-03
   endloop
 endfacet
 facet normal  1.736482e-01  7.698080e-16 -9.848078e-01
   outer loop
     vertex -2.055934e-03 -1.422370e-03  6.745470e-03
     vertex -6.139576e-03 -1.000000e-03  6.025413e-03
     vertex -2.291288e-03 -1.000000e-03  6.703970e-03
   endloop
 endfacet
 facet normal  1.736482e-01  3.379193e-17 -9.848078e-01
   outer loop
     vertex -6.139576e-03 -1.400000e-02  6.025413e-03
     vertex -1.366193e-03 -2.093685e-03  6.867090e-03
     vertex -9.376064e-04 -2.317519e-03  6.942661e-03
   endloop
 endfacet
 facet normal  1.736482e-01 -4.401949e-17 -9.848078e-01
   outer loop
     vertex  3.708502e-03 -1.400000e-02  7.761895e-03
     vertex -6.139576e-03 -1.400000e-02  6.025413e-03
     vertex -4.739478e-04 -2.454664e-03  7.024416e-03
   endloop
 endfacet
 facet normal  1.736482e-01  4.252398e-16 -9.848078e-01
   outer loop
     vertex -6.139576e-03 -1.400000e-02  6.025413e-03
     vertex -9.376064e-04 -2.317519e-03  6.942661e-03
     vertex -4.739478e-04 -2.454664e-03  7.024416e-03
   endloop
 endfacet
 facet normal  1.736482e-01  2.427967e-16 -9.848078e-01
   outer loop
     vertex  3.708502e-03 -1.400000e-02  7.761895e-03
     vertex -4.739478e-04 -2.454664e-03  7.024416e-03
     vertex  7.439244e-06 -2.499989e-03  7.109298e-03
   endloop
 endfacet
 facet normal  1.736482e-01 -3.377638e-16 -9.848078e-01
   outer loop
     vertex  3.708502e-03 -1.400000e-02  7.761895e-03
     vertex  7.439244e-06 -2.499989e-03  7.109298e-03
     vertex  4.885481e-04 -2.451800e-03  7.194130e-03
   endloop
 endfacet
 facet normal  1.736482e-01  1.529322e-16 -9.848078e-01
   outer loop
     vertex  3.708502e-03 -1.400000e-02  7.761895e-03
     vertex  4.885481e-04 -2.451800e-03  7.194130e-03
     vertex  9.513822e-04 -2.311898e-03  7.275741e-03
   endloop
 endfacet
 facet normal  1.736482e-01  1.252837e-16 -9.848078e-01
   outer loop
     vertex  3.708502e-03 -1.400000e-02  7.761895e-03
     vertex  9.513822e-04 -2.311898e-03  7.275741e-03
     vertex  1.378629e-03 -2.085517e-03  7.351076e-03
   endloop
 endfacet
 facet normal  1.736482e-01  7.784248e-16 -9.848078e-01
   outer loop
     vertex  1.378629e-03 -2.085517e-03  7.351076e-03
     vertex  1.754307e-03 -1.781126e-03  7.417318e-03
     vertex  3.708502e-03 -1.000000e-03  7.761895e-03
   endloop
 endfacet
 facet normal  1.736482e-01 -2.199158e-15 -9.848078e-01
   outer loop
     vertex  1.754307e-03 -1.781126e-03  7.417318e-03
     vertex  2.060157e-03 -1.416246e-03  7.471248e-03
     vertex  3.708502e-03 -1.000000e-03  7.761895e-03
   endloop
 endfacet
 facet normal  1.736482e-01  7.843591e-16 -9.848078e-01
   outer loop
     vertex  2.060157e-03 -1.416246e-03  7.471248e-03
     vertex  2.291288e-03 -1.000000e-03  7.512002e-03
     vertex  3.708502e-03 -1.000000e-03  7.761895e-03
   endloop
 endfacet
 facet normal  1.736482e-01  0.000000e+00 -9.848078e-01
   outer loop
     vertex  3.708502e-03 -1.400000e-02  7.761895e-03
     vertex  1.378629e-03 -2.085517e-03  7.351076e-03
     vertex  3.708502e-03 -1.000000e-03  7.761895e-03
   endloop
 endfacet
 facet normal  8.742616e-01 -4.854551e-01  0.000000e+00
   outer loop
     vertex -2.060157e-03  1.416246e-03  8.486674e-03
     vertex -2.291288e-03  1.000000e-03  8.527429e-03
     vertex -2.291288e-03  1.000000e-03  7.512002e-03
   endloop
 endfacet
 facet normal  7.663751e-01 -6.423933e-01  0.000000e+00
   outer loop
     vertex -1.754307e-03  1.781126e-03  8.432744e-03
     vertex -2.060157e-03  1.416246e-03  8.486674e-03
     vertex -2.060157e-03  1.416246e-03  7.471248e-03
   endloop
 endfacet
 facet normal  8.742616e-01 -4.854551e-01  0.000000e+00
   outer loop
     vertex -2.060157e-03  1.416246e-03  8.486674e-03
     vertex -2.291288e-03  1.000000e-03  7.512002e-03
     vertex -2.060157e-03  1.416246e-03  7.471248e-03
   endloop
 endfacet
 facet normal  6.295376e-01 -7.769700e-01  0.000000e+00
   outer loop
     vertex -1.378629e-03  2.085517e-03  8.366502e-03
     vertex -1.754307e-03  1.781126e-03  8.432744e-03
     vertex -1.754307e-03  1.781126e-03  7.417318e-03
   endloop
 endfacet
 facet normal  7.663751e-01 -6.423933e-01  0.000000e+00
   outer loop
     vertex -1.754307e-03  1.781126e-03  8.432744e-03
     vertex -2.060157e-03  1.416246e-03  7.471248e-03
     vertex -1.754307e-03  1.781126e-03  7.417318e-03
   endloop
 endfacet
 facet normal  4.681965e-01 -8.836244e-01  0.000000e+00
   outer loop
     vertex -9.513822e-04  2.311898e-03  8.291167e-03
     vertex -1.378629e-03  2.085517e-03  8.366502e-03
     vertex -1.378629e-03  2.085517e-03  7.351076e-03
   endloop
 endfacet
 facet normal  6.295376e-01 -7.769700e-01  0.000000e+00
   outer loop
     vertex -1.378629e-03  2.085517e-03  8.366502e-03
     vertex -1.754307e-03  1.781126e-03  7.417318e-03
     vertex -1.378629e-03  2.085517e-03  7.351076e-03
   endloop
 endfacet
 facet normal  2.893421e-01 -9.572257e-01  0.000000e+00
   outer loop
     vertex -4.885481e-04  2.451800e-03  8.209557e-03
     vertex -9.513822e-04  2.311898e-03  8.291167e-03
     vertex -9.513822e-04  2.311898e-03  7.275741e-03
   endloop
 endfacet
 facet normal  4.681965e-01 -8.836244e-01  0.000000e+00
   outer loop
     vertex -9.513822e-04  2.311898e-03  8.291167e-03
     vertex -1.378629e-03  2.085517e-03  7.351076e-03
     vertex -9.513822e-04  2.311898e-03  7.275741e-03
   endloop
 endfacet
 facet normal  9.966456e-02 -9.950211e-01  0.000000e+00
   outer loop
     vertex -7.439244e-06  2.499989e-03  8.124725e-03
     vertex -4.885481e-04  2.451800e-03  8.209557e-03
     vertex -4.885481e-04  2.451800e-03  7.194130e-03
   endloop
 endfacet
 facet normal  2.893421e-01 -9.572257e-01  0.000000e+00
   outer loop
     vertex -4.885481e-04  2.451800e-03  8.209557e-03
     vertex -9.513822e-04  2.311898e-03  7.275741e-03
     vertex -4.885481e-04  2.451800e-03  7.194130e-03
   endloop
 endfacet
 facet normal -9.374106e-02 -9.955966e-01 -0.000000e+00
   outer loop
     vertex  4.739478e-04  2.454664e-03  8.039843e-03
     vertex -7.439244e-06  2.499989e-03  8.124725e-03
     vertex -7.439244e-06  2.499989e-03  7.109298e-03
   endloop
 endfacet
 facet normal  9.966456e-02 -9.950211e-01  0.000000e+00
   outer loop
     vertex -7.439244e-06  2.499989e-03  8.124725e-03
     vertex -4.885481e-04  2.451800e-03  7.194130e-03
     vertex -7.439244e-06  2.499989e-03  7.109298e-03
   endloop
 endfacet
 facet normal -2.836402e-01 -9.589308e-01 -0.000000e+00
   outer loop
     vertex  9.376064e-04  2.317519e-03  7.958088e-03
     vertex  4.739478e-04  2.454664e-03  8.039843e-03
     vertex  4.739478e-04  2.454664e-03  7.024416e-03
   endloop
 endfacet
 facet normal -9.374106e-02 -9.955966e-01  0.000000e+00
   outer loop
     vertex  4.739478e-04  2.454664e-03  8.039843e-03
     vertex -7.439244e-06  2.499989e-03  7.109298e-03
     vertex  4.739478e-04  2.454664e-03  7.024416e-03
   endloop
 endfacet
 facet normal -4.629295e-01 -8.863951e-01 -0.000000e+00
   outer loop
     vertex  1.366193e-03  2.093685e-03  7.882516e-03
     vertex  9.376064e-04  2.317519e-03  7.958088e-03
     vertex  9.376064e-04  2.317519e-03  6.942661e-03
   endloop
 endfacet
 facet normal -2.836402e-01 -9.589308e-01  0.000000e+00
   outer loop
     vertex  9.376064e-04  2.317519e-03  7.958088e-03
     vertex  4.739478e-04  2.454664e-03  7.024416e-03
     vertex  9.376064e-04  2.317519e-03  6.942661e-03
   endloop
 endfacet
 facet normal -6.249024e-01 -7.807029e-01 -0.000000e+00
   outer loop
     vertex  1.743675e-03  1.791535e-03  7.815956e-03
     vertex  1.366193e-03  2.093685e-03  7.882516e-03
     vertex  1.366193e-03  2.093685e-03  6.867090e-03
   endloop
 endfacet
 facet normal -4.629295e-01 -8.863951e-01  0.000000e+00
   outer loop
     vertex  1.366193e-03  2.093685e-03  7.882516e-03
     vertex  9.376064e-04  2.317519e-03  6.942661e-03
     vertex  1.366193e-03  2.093685e-03  6.867090e-03
   endloop
 endfacet
 facet normal -7.635001e-01 -6.458077e-01 -0.000000e+00
   outer loop
     vertex  2.055934e-03  1.422370e-03  7.760896e-03
     vertex  1.743675e-03  1.791535e-03  7.815956e-03
     vertex  1.743675e-03  1.791535e-03  6.800529e-03
   endloop
 endfacet
 facet normal -6.249024e-01 -7.807029e-01  0.000000e+00
   outer loop
     vertex  1.743675e-03  1.791535e-03  7.815956e-03
     vertex  1.366193e-03  2.093685e-03  6.867090e-03
     vertex  1.743675e-03  1.791535e-03  6.800529e-03
   endloop
 endfacet
 facet normal -8.735384e-01 -4.867553e-01 -0.000000e+00
   outer loop
     vertex  2.291288e-03  1.000000e-03  7.719397e-03
     vertex  2.055934e-03  1.422370e-03  7.760896e-03
     vertex  2.055934e-03  1.422370e-03  6.745470e-03
   endloop
 endfacet
 facet normal -7.635001e-01 -6.458077e-01  0.000000e+00
   outer loop
     vertex  2.055934e-03  1.422370e-03  7.760896e-03
     vertex  1.743675e-03  1.791535e-03  6.800529e-03
     vertex  2.055934e-03  1.422370e-03  6.745470e-03
   endloop
 endfacet
 facet normal -8.735384e-01 -4.867553e-01  3.773886e-16
   outer loop
     vertex  2.291288e-03  1.000000e-03  7.719397e-03
     vertex  2.055934e-03  1.422370e-03  6.745470e-03
     vertex  2.291288e-03  1.000000e-03  6.703970e-03
   endloop
 endfacet
 facet normal -8.742616e-01  4.854551e-01  0.000000e+00
   outer loop
     vertex  2.060157e-03 -1.416246e-03  8.486674e-03
     vertex  2.291288e-03 -1.000000e-03  8.527429e-03
     vertex  2.291288e-03 -1.000000e-03  7.512002e-03
   endloop
 endfacet
 facet normal -7.663751e-01  6.423933e-01  0.000000e+00
   outer loop
     vertex  1.754307e-03 -1.781126e-03  8.432744e-03
     vertex  2.060157e-03 -1.416246e-03  8.486674e-03
     vertex  2.060157e-03 -1.416246e-03  7.471248e-03
   endloop
 endfacet
 facet normal -8.742616e-01  4.854551e-01  0.000000e+00
   outer loop
     vertex  2.060157e-03 -1.416246e-03  8.486674e-03
     vertex  2.291288e-03 -1.000000e-03  7.512002e-03
     vertex  2.060157e-03 -1.416246e-03  7.471248e-03
   endloop
 endfacet
 facet normal -6.295376e-01  7.769700e-01  0.000000e+00
   outer loop
     vertex  1.378629e-03 -2.085517e-03  8.366502e-03
     vertex  1.754307e-03 -1.781126e-03  8.432744e-03
     vertex  1.754307e-03 -1.781126e-03  7.417318e-03
   endloop
 endfacet
 facet normal -7.663751e-01  6.423933e-01  0.000000e+00
   outer loop
     vertex  1.754307e-03 -1.781126e-03  8.432744e-03
     vertex  2.060157e-03 -1.416246e-03  7.471248e-03
     vertex  1.754307e-03 -1.781126e-03  7.417318e-03
   endloop
 endfacet
 facet normal -4.681965e-01  8.836244e-01  0.000000e+00
   outer loop
     vertex  9.513822e-04 -2.311898e-03  8.291167e-03
     vertex  1.378629e-03 -2.085517e-03  8.366502e-03
     vertex  1.378629e-03 -2.085517e-03  7.351076e-03
   endloop
 endfacet
 facet normal -6.295376e-01  7.769700e-01  0.000000e+00
   outer loop
     vertex  1.378629e-03 -2.085517e-03  8.366502e-03
     vertex  1.754307e-03 -1.781126e-03  7.417318e-03
     vertex  1.378629e-03 -2.085517e-03  7.351076e-03
   endloop
 endfacet
 facet normal -2.893421e-01  9.572257e-01  0.000000e+00
   outer loop
     vertex  4.885481e-04 -2.451800e-03  8.209557e-03
     vertex  9.513822e-04 -2.311898e-03  8.291167e-03
     vertex  9.513822e-04 -2.311898e-03  7.275741e-03
   endloop
 endfacet
 facet normal -4.681965e-01  8.836244e-01  0.000000e+00
   outer loop
     vertex  9.513822e-04 -2.311898e-03  8.291167e-03
     vertex  1.378629e-03 -2.085517e-03  7.351076e-03
     vertex  9.513822e-04 -2.311898e-03  7.275741e-03
   endloop
 endfacet
 facet normal -9.966456e-02  9.950211e-01  0.000000e+00
   outer loop
     vertex  7.439244e-06 -2.499989e-03  8.124725e-03
     vertex  4.885481e-04 -2.451800e-03  8.209557e-03
     vertex  4.885481e-04 -2.451800e-03  7.194130e-03
   endloop
 endfacet
 facet normal -2.893421e-01  9.572257e-01  0.000000e+00
   outer loop
     vertex  4.885481e-04 -2.451800e-03  8.209557e-03
     vertex  9.513822e-04 -2.311898e-03  7.275741e-03
     vertex  4.885481e-04 -2.451800e-03  7.194130e-03
   endloop
 endfacet
 facet normal  9.374106e-02  9.955966e-01  0.000000e+00
   outer loop
     vertex -4.739478e-04 -2.454664e-03  8.039843e-03
     vertex  7.439244e-06 -2.499989e-03  8.124725e-03
     vertex  7.439244e-06 -2.499989e-03  7.109298e-03
   endloop
 endfacet
 facet normal -9.966456e-02  9.950211e-01  0.000000e+00
   outer loop
     vertex  7.439244e-06 -2.499989e-03  8.124725e-03
     vertex  4.885481e-04 -2.451800e-03  7.194130e-03
     vertex  7.439244e-06 -2.499989e-03  7.109298e-03
   endloop
 endfacet
 facet normal  2.836402e-01  9.589308e-01  0.000000e+00
   outer loop
     vertex -9.376064e-04 -2.317519e-03  7.958088e-03
     vertex -4.739478e-04 -2.454664e-03  8.039843e-03
     vertex -4.739478e-04 -2.454664e-03  7.024416e-03
   endloop
 endfacet
 facet normal  9.374106e-02  9.955966e-01  0.000000e+00
   outer loop
     vertex -4.739478e-04 -2.454664e-03  8.039843e-03
     vertex  7.439244e-06 -2.499989e-03  7.109298e-03
     vertex -4.739478e-04 -2.454664e-03  7.024416e-03
   endloop
 endfacet
 facet normal  4.629295e-01  8.863951e-01  0.000000e+00
   outer loop
     vertex -1.366193e-03 -2.093685e-03  7.882516e-03
     vertex -9.376064e-04 -2.317519e-03  7.958088e-03
     vertex -9.376064e-04 -2.317519e-03  6.942661e-03
   endloop
 endfacet
 facet normal  2.836402e-01  9.589308e-01  0.000000e+00
   outer loop
     vertex -9.376064e-04 -2.317519e-03  7.958088e-03
     vertex -4.739478e-04 -2.454664e-03  7.024416e-03
     vertex -9.376064e-04 -2.317519e-03  6.942661e-03
   endloop
 endfacet
 facet normal  6.249024e-01  7.807029e-01  0.000000e+00
   outer loop
     vertex -1.743675e-03 -1.791535e-03  7.815956e-03
     vertex -1.366193e-03 -2.093685e-03  7.882516e-03
     vertex -1.366193e-03 -2.093685e-03  6.867090e-03
   endloop
 endfacet
 facet normal  4.629295e-01  8.863951e-01  0.000000e+00
   outer loop
     vertex -1.366193e-03 -2.093685e-03  7.882516e-03
     vertex -9.376064e-04 -2.317519e-03  6.942661e-03
     vertex -1.366193e-03 -2.093685e-03  6.867090e-03
   endloop
 endfacet
 facet normal  7.635001e-01  6.458077e-01  0.000000e+00
   outer loop
     vertex -2.055934e-03 -1.422370e-03  7.760896e-03
     vertex -1.743675e-03 -1.791535e-03  7.815956e-03
     vertex -1.743675e-03 -1.791535e-03  6.800529e-03
   endloop
 endfacet
 facet normal  6.249024e-01  7.807029e-01  0.000000e+00
   outer loop
     vertex -1.743675e-03 -1.791535e-03  7.815956e-03
     vertex -1.366193e-03 -2.093685e-03  6.867090e-03
     vertex -1.743675e-03 -1.791535e-03  6.800529e-03
   endloop
 endfacet
 facet normal  8.735384e-01  4.867553e-01  0.000000e+00
   outer loop
     vertex -2.291288e-03 -1.000000e-03  7.719397e-03
     vertex -2.055934e-03 -1.422370e-03  7.760896e-03
     vertex -2.055934e-03 -1.422370e-03  6.745470e-03
   endloop
 endfacet
 facet normal  7.635001e-01  6.458077e-01  0.000000e+00
   outer loop
     vertex -2.055934e-03 -1.422370e-03  7.760896e-03
     vertex -1.743675e-03 -1.791535e-03  6.800529e-03
     vertex -2.055934e-03 -1.422370e-03  6.745470e-03
   endloop
 endfacet
 facet normal  8.735384e-01  4.867553e-01 -3.773886e-16
   outer loop
     vertex -2.291288e-03 -1.000000e-03  7.719397e-03
     vertex -2.055934e-03 -1.422370e-03  6.745470e-03
     vertex -2.291288e-03 -1.000000e-03  6.703970e-03
   endloop
 endfacet
endsolid shaftRotating
